<?xml version="1.0" standalone="no"?>
<!DOCTYPE svg PUBLIC "-//W3C//DTD SVG 20010904//EN"
 "http://www.w3.org/TR/2001/REC-SVG-20010904/DTD/svg10.dtd">
<svg version="1.0" xmlns="http://www.w3.org/2000/svg"
 width="700.000000pt" height="700.000000pt" viewBox="0 0 700.000000 700.000000"
 preserveAspectRatio="xMidYMid meet">
<metadata>
Created by potrace 1.14, written by Peter Selinger 2001-2017
</metadata>
<g transform="translate(0.000000,700.000000) scale(0.100000,-0.100000)"
fill="#000000" stroke="none">
<path d="M5740 6405 l-125 -125 63 -63 62 -63 0 -276 0 -277 -412 -3 c-401 -4
-415 -4 -483 -27 -153 -51 -285 -141 -428 -290 -72 -77 -224 -268 -278 -350
l-16 -25 -109 36 c-186 62 -257 73 -464 73 -141 0 -205 -4 -269 -18 -114 -25
-232 -62 -318 -102 l-72 -33 -85 117 c-217 301 -388 466 -577 556 -139 66
-120 65 -1081 65 l-868 0 0 -175 0 -175 148 0 147 0 315 -189 c173 -103 551
-329 840 -501 289 -172 528 -316 532 -319 4 -4 -8 -43 -27 -86 -141 -329 -152
-717 -30 -1055 29 -80 82 -190 121 -252 l24 -37 -573 -342 c-314 -188 -714
-427 -887 -530 l-315 -189 -147 0 -148 0 0 -175 0 -175 868 0 c961 0 942 -1
1081 65 138 66 260 166 400 329 85 98 214 273 299 403 l54 82 43 -19 c180 -77
463 -115 674 -91 87 10 234 42 311 66 14 4 37 -23 102 -122 262 -395 482 -600
733 -684 68 -23 82 -23 483 -27 l412 -3 0 -277 0 -276 -62 -63 -63 -63 125
-125 125 -125 553 553 552 552 -553 553 -552 552 -125 -125 -125 -125 63 -63
63 -63 -3 -71 -3 -70 -508 304 -507 304 30 44 c50 73 126 233 158 335 52 164
66 257 66 440 0 232 -30 380 -122 589 -25 58 -42 106 -36 108 5 2 214 127 464
277 l455 273 3 -70 3 -71 -63 -63 -63 -63 125 -125 125 -125 553 553 552 552
-553 553 -552 552 -125 -125z m-1958 -1530 c258 -45 496 -171 688 -364 197
-199 318 -430 365 -697 19 -110 19 -322 0 -440 -88 -544 -532 -984 -1079
-1071 -148 -23 -388 -14 -517 20 -478 125 -838 482 -954 947 -92 369 -27 739
188 1060 28 41 98 123 156 181 222 223 488 348 816 383 66 7 248 -3 337 -19z"/>
</g>
</svg>
